<?xml version="1.0" encoding="UTF-8"?>
<svg id="Calque_2" data-name="Calque 2" xmlns="http://www.w3.org/2000/svg" xmlns:xlink="http://www.w3.org/1999/xlink" viewBox="0 0 1080 228.28">
  <defs>
    <style>
      .cls-1 {
        fill: url(#Dégradé_sans_nom_6);
      }

      .cls-2 {
        fill: #fff;
      }
    </style>
    <linearGradient id="Dégradé_sans_nom_6" data-name="Dégradé sans nom 6" x1="21.51" y1="114.14" x2="1536.15" y2="114.14" gradientUnits="userSpaceOnUse">
      <stop offset="0" stop-color="#6873e0"/>
      <stop offset=".26" stop-color="#8f7be0"/>
      <stop offset=".59" stop-color="#bb85e0"/>
      <stop offset=".85" stop-color="#d58ae0"/>
      <stop offset="1" stop-color="#e08de0"/>
    </linearGradient>
  </defs>
  <g id="Calque_1-2" data-name="Calque 1">
    <g>
      <path class="cls-1" d="M1080,78.99v70.25c0,43.48-35.38,78.81-78.8,78.81h-14.12c-45.66,0-91.33.22-136.97.22-29.6,0-59.18-.27-88.8-.27-50.15,0-100.27-.2-150.42-.2-17.47,0-33.03-.24-46.36-13.34,0,0-23.17-22.82-23.12-22.92,0,0-.1-.11-.21-.05l-14.05-13.85v3.03c0,13.9-6.26,27.31-16.89,36.26-12.67,10.67-27.06,11.34-42.85,11.34h-253.85c-25.86,0-51.77-.22-77.66-.22H51.27c-26.1,0-47.32-21.23-47.32-47.33v-6.92c-2.51-7.69-3.95-15.95-3.95-24.56v-70.25C0,35.5,35.33.17,78.75.17h62.8c22.29,0,44.62-.23,66.88.19,33.23.62,66.53,0,99.77,0,43.3,0,86.59-.36,129.88-.36,16.39,0,32.76.17,49.13.17,12.51,0,24.3,4.82,33.22,13.59l34.09,33.64c.1-26.05,21.28-47.23,47.32-47.23h17.43c3.06,0,6.12.17,9.2.17,23.86,0,47.73-.14,71.58-.11,48.02.07,96.04.38,144.06.38h134.37c18.12,0,36.07-1.52,53.21,5.7,28.92,12.19,48.29,41.27,48.29,72.67Z"/>
      <path class="cls-2" d="M169.49,99.1h-85.18c-7.31,0-13.28-5.98-13.28-13.29v-1.31c0-7.32,5.97-13.29,13.28-13.29h112.67c3.48,0,6.31-2.83,6.31-6.3v-17.41c0-3.48-2.83-6.31-6.31-6.31h-118.2c-20.77,0-37.77,17-37.77,37.77v12.38c0,20.78,17,37.77,37.77,37.77h85.18c7.31,0,13.29,5.98,13.29,13.29v1.31c0,7.31-5.98,13.29-13.29,13.29H51.29c-3.48,0-6.31,2.83-6.31,6.31v17.41c0,3.48,2.84,6.31,6.31,6.31h118.2c20.77,0,37.77-17,37.77-37.77v-12.39c0-20.77-17-37.77-37.77-37.77Z"/>
      <path class="cls-2" d="M273.47,41.2h-17.4c-3.48,0-6.31,2.83-6.31,6.31v17.41c0,3.48,2.84,6.31,6.31,6.31h17.4c3.48,0,6.31-2.83,6.31-6.31v-17.41c0-3.48-2.84-6.31-6.31-6.31Z"/>
      <path class="cls-2" d="M273.47,157.01h-17.4c-3.48,0-6.31,2.83-6.31,6.32v17.41c0,3.48,2.84,6.31,6.31,6.31h17.4c3.48,0,6.31-2.83,6.31-6.31v-17.41c0-3.48-2.84-6.32-6.31-6.32Z"/>
      <path class="cls-2" d="M298.73,129.13h93.01c3.48,0,6.31-2.83,6.31-6.31v-17.41c0-3.48-2.84-6.32-6.31-6.32h-93.01c-3.48,0-6.31,2.83-6.31,6.32v17.41c0,3.48,2.84,6.31,6.31,6.31Z"/>
      <path class="cls-2" d="M406.88,157.01h-100.65c-.06,0-.12,0-.18,0h-7.33c-3.48,0-6.31,2.83-6.31,6.31v17.41c0,3.48,2.84,6.31,6.31,6.31h108.15c3.48,0,6.31-2.83,6.31-6.31v-17.41c0-3.48-2.84-6.32-6.31-6.32Z"/>
      <path class="cls-2" d="M273.47,99.1h-17.4c-3.48,0-6.31,2.83-6.31,6.32v17.41c0,3.48,2.84,6.31,6.31,6.31h17.4c3.48,0,6.31-2.83,6.31-6.31v-17.41c0-3.48-2.84-6.32-6.31-6.32Z"/>
      <path class="cls-2" d="M406.88,41.2h-108.15c-3.48,0-6.31,2.83-6.31,6.31v17.41c0,3.48,2.84,6.31,6.31,6.31h108.15c3.48,0,6.31-2.83,6.31-6.31v-17.41c0-3.48-2.84-6.31-6.31-6.31Z"/>
      <path class="cls-2" d="M619.29,41.2h-17.41c-3.48,0-6.31,2.83-6.31,6.31v97.82l-4.52-4.45-99.4-97.87c-1.23-1.21-2.72-1.81-4.45-1.81h-24.73c-2.62,0-4.87,1.5-5.87,3.93-.99,2.43-.45,5.08,1.42,6.92l111.96,110.23s.08.08.12.12l23.18,22.83c1.22,1.2,2.72,1.81,4.43,1.81h21.56c3.48,0,6.31-2.83,6.31-6.31V47.5c0-3.48-2.83-6.31-6.31-6.31Z"/>
      <path class="cls-2" d="M466.91,100c-1.86-1.83-4.49-2.34-6.9-1.33-2.41,1.01-3.89,3.23-3.89,5.85v76.17c0,3.49,2.85,6.34,6.34,6.34h17.35c3.49,0,6.34-2.85,6.34-6.34v-59.1c0-1.76-.63-3.28-1.89-4.52l-17.34-17.08Z"/>
      <path class="cls-2" d="M819.95,41.22h-145.73c-3.48,0-6.23,2.65-6.23,5.84v133.8c0,.81.18,1.57.49,2.27.96,2.27,3.23,3.85,5.86,3.85h145.61c3.6,0,6.36-2.76,6.36-6.23v-17.38c0-3.48-2.88-6.35-6.36-6.35h-122v-27.93h106.9c3.48,0,6.35-2.76,6.35-6.23v-17.5c0-3.48-2.87-6.23-6.35-6.23h-106.9v-27.93h122c3.48,0,6.36-2.76,6.36-6.23v-17.5c0-3.48-2.88-6.23-6.36-6.23Z"/>
      <path class="cls-2" d="M1001.2,41.2h-126.15c-3.48,0-6.31,2.83-6.31,6.31v17.39c0,3.48,2.83,6.32,6.31,6.32h120.61c7.31,0,13.28,5.98,13.28,13.29v59.22c0,7.31-5.98,13.29-13.28,13.29h-120.61c-3.48,0-6.31,2.83-6.31,6.31v17.41c0,3.48,2.83,6.31,6.31,6.31h126.15c20.77,0,37.77-17,37.77-37.77v-70.29c0-20.78-17-37.77-37.77-37.77Z"/>
    </g>
  </g>
</svg>