<?xml version="1.0" encoding="UTF-8"?>
<svg id="Calque_2" data-name="Calque 2" xmlns="http://www.w3.org/2000/svg" viewBox="0 0 1080 158.64">
  <defs>
    <style>
      .cls-1 {
        fill: #141414;
      }
    </style>
  </defs>
  <g id="Calque_1-2" data-name="Calque 1">
    <g>
      <path class="cls-1" d="M139.77,62.99H47.11c-7.95,0-14.45-6.5-14.45-14.45v-1.42c0-7.96,6.5-14.46,14.45-14.46h122.56c3.78,0,6.87-3.08,6.87-6.86V6.86c0-3.78-3.08-6.86-6.87-6.86H41.09C18.49,0,0,18.49,0,41.09v13.47c0,22.6,18.49,41.09,41.09,41.09h92.66c7.95,0,14.45,6.51,14.45,14.45v1.43c0,7.95-6.5,14.45-14.45,14.45H11.19c-3.78,0-6.87,3.08-6.87,6.86v18.93c0,3.78,3.08,6.86,6.87,6.86h128.58c22.6,0,41.09-18.49,41.09-41.09v-13.48c0-22.6-18.49-41.09-41.09-41.09Z"/>
      <path class="cls-1" d="M252.87,0h-18.93c-3.78,0-6.87,3.08-6.87,6.86v18.93c0,3.78,3.08,6.86,6.87,6.86h18.93c3.78,0,6.87-3.08,6.87-6.86V6.86c0-3.79-3.09-6.86-6.87-6.86Z"/>
      <path class="cls-1" d="M252.87,125.98h-18.93c-3.78,0-6.87,3.08-6.87,6.87v18.93c0,3.78,3.08,6.86,6.87,6.86h18.93c3.78,0,6.87-3.08,6.87-6.86v-18.93c0-3.79-3.09-6.87-6.87-6.87Z"/>
      <path class="cls-1" d="M274.77,95.65h101.17c3.78,0,6.87-3.08,6.87-6.86v-18.93c0-3.79-3.09-6.87-6.87-6.87h-101.17c-3.78,0-6.87,3.08-6.87,6.87v18.93c0,3.78,3.08,6.86,6.87,6.86Z"/>
      <path class="cls-1" d="M392.42,125.98h-109.48c-.06,0-.13,0-.19,0h-7.98c-3.78,0-6.87,3.08-6.87,6.86v18.93c0,3.78,3.08,6.86,6.87,6.86h117.65c3.78,0,6.87-3.08,6.87-6.86v-18.93c0-3.79-3.08-6.87-6.87-6.87Z"/>
      <path class="cls-1" d="M252.87,62.99h-18.93c-3.78,0-6.87,3.08-6.87,6.87v18.93c0,3.78,3.08,6.86,6.87,6.86h18.93c3.78,0,6.87-3.08,6.87-6.86v-18.93c0-3.79-3.09-6.87-6.87-6.87Z"/>
      <path class="cls-1" d="M392.42,0h-117.65c-3.78,0-6.87,3.08-6.87,6.86v18.93c0,3.78,3.08,6.86,6.87,6.86h117.65c3.78,0,6.87-3.08,6.87-6.86V6.86c0-3.78-3.08-6.86-6.87-6.86Z"/>
      <path class="cls-1" d="M623.47,0h-18.93c-3.78,0-6.86,3.08-6.86,6.86v106.41l-4.91-4.84L484.64,1.97c-1.34-1.32-2.96-1.97-4.84-1.97h-26.9c-2.85,0-5.3,1.63-6.38,4.28-1.08,2.65-.49,5.53,1.55,7.53l121.79,119.91c.04.05.09.09.13.13l25.21,24.83c1.33,1.31,2.96,1.97,4.82,1.97h23.46c3.78,0,6.86-3.08,6.86-6.86V6.86c0-3.78-3.08-6.86-6.86-6.86Z"/>
      <path class="cls-1" d="M457.71,63.97c-2.02-1.99-4.88-2.54-7.5-1.45-2.62,1.1-4.23,3.51-4.23,6.36v82.86c0,3.8,3.1,6.9,6.89,6.9h18.87c3.8,0,6.89-3.1,6.89-6.9v-64.28c0-1.92-.69-3.57-2.06-4.92l-18.87-18.58Z"/>
      <path class="cls-1" d="M841.75.03h-158.53c-3.78,0-6.78,2.88-6.78,6.35v145.55c0,.88.19,1.71.54,2.47,1.04,2.47,3.52,4.18,6.37,4.18h158.4c3.91,0,6.91-3,6.91-6.78v-18.91c0-3.78-3.13-6.91-6.91-6.91h-132.71v-30.38h116.29c3.78,0,6.91-3,6.91-6.78v-19.04c0-3.78-3.13-6.78-6.91-6.78h-116.29v-30.38h132.71c3.78,0,6.91-3,6.91-6.78V6.81c0-3.78-3.13-6.78-6.91-6.78Z"/>
      <path class="cls-1" d="M1038.92,0h-137.22c-3.78,0-6.87,3.08-6.87,6.86v18.92c0,3.78,3.08,6.87,6.87,6.87h131.2c7.95,0,14.45,6.5,14.45,14.45v64.42c0,7.95-6.5,14.45-14.45,14.45h-131.2c-3.78,0-6.87,3.08-6.87,6.86v18.93c0,3.78,3.08,6.86,6.87,6.86h137.22c22.59,0,41.08-18.5,41.08-41.09V41.09c0-22.6-18.49-41.09-41.08-41.09Z"/>
    </g>
  </g>
</svg>