<?xml version="1.0" encoding="UTF-8"?>
<svg id="Calque_2" data-name="Calque 2" xmlns="http://www.w3.org/2000/svg" viewBox="0 0 1080 260.71">
  <defs>
    <style>
      .cls-1 {
        fill: #6873e0;
      }
    </style>
  </defs>
  <g id="Calque_1-2" data-name="Calque 1">
    <g>
      <g>
        <path class="cls-1" d="M139.77,62.99H47.11c-7.95,0-14.45-6.5-14.45-14.45v-1.42c0-7.96,6.5-14.46,14.45-14.46h122.56c3.78,0,6.87-3.08,6.87-6.86V6.86c0-3.78-3.08-6.86-6.87-6.86H41.09C18.49,0,0,18.49,0,41.09v13.47c0,22.6,18.49,41.09,41.09,41.09h92.66c7.95,0,14.45,6.51,14.45,14.45v1.43c0,7.95-6.5,14.45-14.45,14.45H11.19c-3.78,0-6.87,3.08-6.87,6.86v18.93c0,3.78,3.08,6.86,6.87,6.86h128.58c22.6,0,41.09-18.49,41.09-41.09v-13.48c0-22.6-18.49-41.09-41.09-41.09Z"/>
        <path class="cls-1" d="M252.87,0h-18.93c-3.78,0-6.87,3.08-6.87,6.86v18.93c0,3.78,3.08,6.86,6.87,6.86h18.93c3.78,0,6.87-3.08,6.87-6.86V6.86c0-3.79-3.09-6.86-6.87-6.86Z"/>
        <path class="cls-1" d="M252.87,125.98h-18.93c-3.78,0-6.87,3.08-6.87,6.87v18.93c0,3.78,3.08,6.86,6.87,6.86h18.93c3.78,0,6.87-3.08,6.87-6.86v-18.93c0-3.79-3.09-6.87-6.87-6.87Z"/>
        <path class="cls-1" d="M274.77,95.65h101.17c3.78,0,6.87-3.08,6.87-6.86v-18.93c0-3.79-3.09-6.87-6.87-6.87h-101.17c-3.78,0-6.87,3.08-6.87,6.87v18.93c0,3.78,3.08,6.86,6.87,6.86Z"/>
        <path class="cls-1" d="M392.42,125.98h-109.48c-.06,0-.13,0-.19,0h-7.98c-3.78,0-6.87,3.08-6.87,6.86v18.93c0,3.78,3.08,6.86,6.87,6.86h117.65c3.78,0,6.87-3.08,6.87-6.86v-18.93c0-3.79-3.08-6.87-6.87-6.87Z"/>
        <path class="cls-1" d="M252.87,62.99h-18.93c-3.78,0-6.87,3.08-6.87,6.87v18.93c0,3.78,3.08,6.86,6.87,6.86h18.93c3.78,0,6.87-3.08,6.87-6.86v-18.93c0-3.79-3.09-6.87-6.87-6.87Z"/>
        <path class="cls-1" d="M392.42,0h-117.65c-3.78,0-6.87,3.08-6.87,6.86v18.93c0,3.78,3.08,6.86,6.87,6.86h117.65c3.78,0,6.87-3.08,6.87-6.86V6.86c0-3.78-3.08-6.86-6.87-6.86Z"/>
        <path class="cls-1" d="M623.47,0h-18.93c-3.78,0-6.86,3.08-6.86,6.86v106.41l-4.91-4.84L484.64,1.97c-1.34-1.32-2.96-1.97-4.84-1.97h-26.9c-2.85,0-5.3,1.63-6.38,4.28-1.08,2.65-.49,5.53,1.55,7.53l121.79,119.91c.04.05.09.09.13.13l25.21,24.83c1.33,1.31,2.96,1.97,4.82,1.97h23.46c3.78,0,6.86-3.08,6.86-6.86V6.86c0-3.78-3.08-6.86-6.86-6.86Z"/>
        <path class="cls-1" d="M457.71,63.97c-2.02-1.99-4.88-2.54-7.5-1.45-2.62,1.1-4.23,3.51-4.23,6.36v82.86c0,3.8,3.1,6.9,6.89,6.9h18.87c3.8,0,6.89-3.1,6.89-6.9v-64.28c0-1.92-.69-3.57-2.06-4.92l-18.87-18.58Z"/>
        <path class="cls-1" d="M841.75.03h-158.53c-3.78,0-6.78,2.88-6.78,6.35v145.55c0,.88.19,1.71.54,2.47,1.04,2.47,3.52,4.18,6.37,4.18h158.4c3.91,0,6.91-3,6.91-6.78v-18.91c0-3.78-3.13-6.91-6.91-6.91h-132.71v-30.38h116.29c3.78,0,6.91-3,6.91-6.78v-19.04c0-3.78-3.13-6.78-6.91-6.78h-116.29v-30.38h132.71c3.78,0,6.91-3,6.91-6.78V6.81c0-3.78-3.13-6.78-6.91-6.78Z"/>
        <path class="cls-1" d="M1038.92,0h-137.22c-3.78,0-6.87,3.08-6.87,6.86v18.92c0,3.78,3.08,6.87,6.87,6.87h131.2c7.95,0,14.45,6.5,14.45,14.45v64.42c0,7.95-6.5,14.45-14.45,14.45h-131.2c-3.78,0-6.87,3.08-6.87,6.86v18.93c0,3.78,3.08,6.86,6.87,6.86h137.22c22.59,0,41.08-18.5,41.08-41.09V41.09c0-22.6-18.49-41.09-41.08-41.09Z"/>
      </g>
      <g>
        <path class="cls-1" d="M1.1,234.92c0-14.06,11.48-25.55,25.55-25.55,8.28,0,16.02,3.98,20.86,10.71l-4.37,3.2c-3.75-5.39-9.92-8.52-16.48-8.52-11.02,0-19.92,9.06-19.92,20.16s8.91,20.24,19.92,20.24c10,0,18.28-6.48,19.69-16.95h-21.25v-4.77h27.19v.78c0,15.78-11.64,26.33-25.62,26.33S1.1,249.07,1.1,234.92Z"/>
        <path class="cls-1" d="M60.05,242.97c0-9.69,7.89-17.66,17.65-17.66s17.58,8.2,17.58,18.52v.47h-29.76c.7,6.56,6.4,11.17,13.05,11.17,4.45,0,8.59-2.42,10.78-6.25l4.37,2.66c-3.2,5.39-8.98,8.67-15.15,8.67-10.31,0-18.51-7.89-18.51-17.58ZM77.63,230.47c-5.55,0-10.23,3.6-11.72,8.99h23.59c-1.48-5.31-6.33-8.99-11.87-8.99ZM76.92,221.95l3.91-10.31h3.44l-5.15,10.31h-2.19Z"/>
        <path class="cls-1" d="M128.22,260.16v-19.92c0-6.88-3.12-9.61-7.89-9.61h-1.02c-7.58.55-11.02,6.25-11.02,10.16v19.38h-5.23v-34.3h5.23v5.47c3.98-4.69,8.36-5.7,10.86-5.94l1.56-.08c8.52,0,12.73,5.47,12.73,14.92v19.92h-5.23Z"/>
        <path class="cls-1" d="M141.25,242.97c0-9.69,7.89-17.66,17.65-17.66s17.58,8.2,17.58,18.52v.47h-29.76c.7,6.56,6.4,11.17,13.05,11.17,4.45,0,8.59-2.42,10.78-6.25l4.37,2.66c-3.2,5.39-8.98,8.67-15.15,8.67-10.31,0-18.51-7.89-18.51-17.58ZM158.83,230.47c-5.55,0-10.23,3.6-11.72,8.99h23.59c-1.48-5.31-6.33-8.99-11.87-8.99ZM158.12,221.95l3.91-10.31h3.44l-5.15,10.31h-2.19Z"/>
        <path class="cls-1" d="M184.27,260.16v-34.38h5.23v5.08c3.28-4.92,8.36-5.55,10.47-5.55l1.02.08v5.23h-.08c-1.25,0-11.33.31-11.33,9.69l-.08,19.85h-5.23Z"/>
        <path class="cls-1" d="M206.83,242.97c0-9.69,7.89-17.66,17.65-17.66s17.58,8.2,17.58,18.52v.47h-29.76c.7,6.56,6.4,11.17,13.05,11.17,4.45,0,8.59-2.42,10.78-6.25l4.37,2.66c-3.2,5.39-8.98,8.67-15.15,8.67-10.31,0-18.51-7.89-18.51-17.58ZM224.41,230.47c-5.55,0-10.23,3.6-11.72,8.99h23.59c-1.48-5.31-6.33-8.99-11.87-8.99Z"/>
        <path class="cls-1" d="M245.95,260.16v-4.84l23.51-24.69h-23.51v-4.84h30.55v4.84l-23.67,24.69h23.67v4.84h-30.55Z"/>
        <path class="cls-1" d="M328.64,260.16l-17.03-34.38h5.78l13.44,27.27,13.36-27.27h5.86l-17.11,34.38h-4.3Z"/>
        <path class="cls-1" d="M353.15,242.97c0-9.77,7.89-17.66,17.58-17.66s17.65,7.89,17.65,17.66-7.97,17.58-17.65,17.58-17.58-7.89-17.58-17.58ZM382.99,242.97c0-6.95-5.55-12.5-12.27-12.5s-12.19,5.55-12.19,12.5,5.47,12.5,12.19,12.5,12.27-5.62,12.27-12.5Z"/>
        <path class="cls-1" d="M396.17,253.13l3.75-3.05s4.3,5.16,11.4,5.63l1.25.08c3.52,0,7.97-.94,7.97-4.45v-.55c-.78-6.56-23.12-4.22-23.2-16.33,0-7.66,7.97-9.06,12.81-9.06h1.17c8.98.47,13.13,6.56,13.13,6.56l-3.59,3.13s-3.59-4.45-9.53-5l-1.64-.08c-2.73,0-6.8.7-6.8,4.38,0,6.72,22.58,4.77,23.36,15.55v.78c0,6.25-5.39,9.92-13.13,9.92-11.25,0-16.95-7.5-16.95-7.5Z"/>
        <path class="cls-1" d="M466.52,260.16v-29.93h-5.15v-4.45h5.15c.08-4.69,0-9.53,2.58-12.42,2.89-3.36,7.58-3.44,11.95-3.44v4.84c-3.98,0-6.48.16-7.89,1.95-1.33,1.56-1.41,5.55-1.41,7.89v1.17l7.66.08v4.38h-7.66v29.93h-5.23Z"/>
        <path class="cls-1" d="M484.17,248.68c0-6.88,6.56-11.8,15.08-11.8,3.52,0,7.42,1.48,9.77,4.38v-3.98c0-2.5-.94-7.03-7.89-7.03l-1.8.08c-5.94.55-11.25,3.13-11.25,3.13l-1.79-4.22s7.73-3.51,13.2-3.83l1.95-.08c11.64,0,12.73,7.34,12.73,11.72v23.13h-5.15v-4.06c-2.5,3.36-6.25,4.45-9.84,4.45-8.59,0-15-5.08-15-11.88ZM509.01,250.79v-3.75c-1.56-2.81-5.86-5.16-9.84-5.16-5.63,0-9.61,2.73-9.61,6.8s4.06,6.8,9.77,6.8c3.98,0,8.2-2.03,9.69-4.69Z"/>
        <path class="cls-1" d="M521.96,242.97c0-9.69,7.89-17.66,17.58-17.66s13.9,6.56,15.08,8.52l-4.3,2.66c-2.26-3.75-6.4-6.02-10.78-6.02-6.8,0-12.19,5.55-12.19,12.5s5.39,12.5,12.19,12.5c4.45,0,8.67-2.42,10.86-6.25l4.38,2.66c-3.2,5.39-8.98,8.67-15.23,8.67-9.69,0-17.58-7.89-17.58-17.58Z"/>
        <path class="cls-1" d="M568.81,258.36c-1.72-1.56-2.58-3.75-2.58-6.64v-21.49h-6.02v-4.45h6.02v-6.09l5.23-2.81v8.91h6.02v4.45h-6.02v21.17c0,.31.08,2.03,1.17,3.2.94.94,2.5,1.17,3.83,1.17,1.17,0,2.03-.16,2.03-.16l.08,4.84s-1.09.24-2.66.24c-2.03,0-4.92-.39-7.11-2.35Z"/>
        <path class="cls-1" d="M586.37,245.71v-19.92h5.23v19.92c0,6.88,3.2,9.61,7.97,9.61h.94c7.58-.55,11.02-6.25,11.02-10.08v-19.45h5.23l.08,34.38h-5.31v-5.47c-3.98,4.69-8.36,5.7-10.86,5.86l-1.72.08c-8.36,0-12.58-5.55-12.58-14.92Z"/>
        <path class="cls-1" d="M628.53,260.16v-34.38h5.23v5.08c3.28-4.92,8.36-5.55,10.47-5.55l1.02.08v5.23h-.08c-1.25,0-11.33.31-11.33,9.69l-.08,19.85h-5.23Z"/>
        <path class="cls-1" d="M651.1,242.97c0-9.69,7.89-17.66,17.65-17.66s17.58,8.2,17.58,18.52v.47h-29.76c.7,6.56,6.4,11.17,13.05,11.17,4.45,0,8.59-2.42,10.78-6.25l4.37,2.66c-3.2,5.39-8.98,8.67-15.15,8.67-10.31,0-18.51-7.89-18.51-17.58ZM668.67,230.47c-5.55,0-10.23,3.6-11.72,8.99h23.59c-1.48-5.31-6.33-8.99-11.87-8.99Z"/>
        <path class="cls-1" d="M694.12,253.13l3.75-3.05s4.3,5.16,11.4,5.63l1.25.08c3.52,0,7.97-.94,7.97-4.45v-.55c-.78-6.56-23.12-4.22-23.2-16.33,0-7.66,7.97-9.06,12.81-9.06h1.17c8.98.47,13.13,6.56,13.13,6.56l-3.59,3.13s-3.59-4.45-9.53-5l-1.64-.08c-2.73,0-6.8.7-6.8,4.38,0,6.72,22.58,4.77,23.36,15.55v.78c0,6.25-5.39,9.92-13.13,9.92-11.25,0-16.95-7.5-16.95-7.5Z"/>
        <path class="cls-1" d="M759.31,242.97c0-9.69,7.89-17.66,17.65-17.66s17.58,8.2,17.58,18.52v.47h-29.76c.7,6.56,6.4,11.17,13.05,11.17,4.45,0,8.59-2.42,10.78-6.25l4.37,2.66c-3.2,5.39-8.98,8.67-15.15,8.67-10.31,0-18.51-7.89-18.51-17.58ZM776.89,230.47c-5.55,0-10.23,3.6-11.72,8.99h23.59c-1.48-5.31-6.33-8.99-11.87-8.99Z"/>
        <path class="cls-1" d="M827.49,260.16v-19.92c0-6.88-3.12-9.61-7.89-9.61h-1.02c-7.58.55-11.02,6.25-11.02,10.16v19.38h-5.23v-34.3h5.23v5.47c3.98-4.69,8.36-5.7,10.86-5.94l1.56-.08c8.52,0,12.73,5.47,12.73,14.92v19.92h-5.23Z"/>
        <path class="cls-1" d="M867.84,245.71v-19.92h5.23v19.92c0,6.88,3.2,9.61,7.97,9.61h.94c7.58-.55,11.02-6.25,11.02-10.08v-19.45h5.23l.08,34.38h-5.31v-5.47c-3.98,4.69-8.36,5.7-10.86,5.86l-1.72.08c-8.36,0-12.58-5.55-12.58-14.92Z"/>
        <path class="cls-1" d="M935.15,260.16v-19.92c0-6.88-3.12-9.61-7.89-9.61h-1.02c-7.58.55-11.02,6.25-11.02,10.16v19.38h-5.23v-34.3h5.23v5.47c3.98-4.69,8.36-5.7,10.86-5.94l1.56-.08c8.52,0,12.73,5.47,12.73,14.92v19.92h-5.23Z"/>
        <path class="cls-1" d="M975.5,242.97c0-9.69,7.89-17.66,17.58-17.66s13.9,6.56,15.08,8.52l-4.3,2.66c-2.26-3.75-6.4-6.02-10.78-6.02-6.8,0-12.19,5.55-12.19,12.5s5.39,12.5,12.19,12.5c4.45,0,8.67-2.42,10.86-6.25l4.38,2.66c-3.2,5.39-8.98,8.67-15.23,8.67-9.69,0-17.58-7.89-17.58-17.58Z"/>
        <path class="cls-1" d="M1016.11,260.16v-54.22h5.23v54.22h-5.23Z"/>
        <path class="cls-1" d="M1033.05,219.14v-6.25h5.23v6.25h-5.23ZM1033.05,260.16v-34.38h5.23v34.38h-5.23Z"/>
        <path class="cls-1" d="M1046.09,242.97c0-9.69,7.89-17.66,17.58-17.66s13.9,6.56,15.08,8.52l-4.3,2.66c-2.26-3.75-6.4-6.02-10.78-6.02-6.8,0-12.19,5.55-12.19,12.5s5.39,12.5,12.19,12.5c4.45,0,8.67-2.42,10.86-6.25l4.38,2.66c-3.2,5.39-8.98,8.67-15.23,8.67-9.69,0-17.58-7.89-17.58-17.58Z"/>
      </g>
    </g>
  </g>
</svg>