<?xml version="1.0" encoding="UTF-8"?>
<svg id="Calque_2" data-name="Calque 2" xmlns="http://www.w3.org/2000/svg" viewBox="0 0 500 304.15">
  <defs>
    <style>
      .cls-1 {
        fill: #141414;
      }
    </style>
  </defs>
  <g id="Calque_1-2" data-name="Calque 1">
    <g>
      <path class="cls-1" d="M146.67,0c-13.74,14.74-23.73,33.24-27.98,53.99-.75,2.75-1.25,5.74-1.75,8.74H12.99c-7.25,0-12.99-5.99-12.99-13.24V13.24C0,5.99,5.75,0,12.99,0h133.68Z"/>
      <path class="cls-1" d="M147.17,183.43H44.73c-7.25,0-13.24-5.99-13.24-13.24v-36.24c0-7.25,6-13.24,13.24-13.24h72.46c.25,2.75.75,5.25,1.25,7.49,4.5,21.25,14.49,40.23,28.73,55.23Z"/>
      <path class="cls-1" d="M500,199.43v25.99c0,43.23-35.23,78.72-78.71,78.72H12.99c-7.25,0-12.99-6-12.99-13.25v-36.23c0-7.25,5.75-13.24,12.99-13.24h396.8c15.24,0,27.73-12.5,27.73-27.75v-2.49c0-15.25-12.49-27.75-27.73-27.75h-177.66c-37.73,0-69.47-26.99-76.96-62.72-1.25-5.25-1.75-10.49-1.75-16v-25.99c0-5.5.5-10.75,1.75-16C162.67,26.99,194.4,0,232.13,0h246.62c7.25,0,12.99,5.99,12.99,13.24v36.24c0,7.25-5.75,13.24-12.99,13.24h-234.88c-15.24,0-27.73,12.25-27.73,27.49v2.75c0,15.25,12.49,27.75,27.73,27.75h177.41c43.48,0,78.71,35.49,78.71,78.72Z"/>
      <path class="cls-1" d="M500,199.43v25.99c0,43.23-35.23,78.72-78.71,78.72H12.99c-7.25,0-12.99-6-12.99-13.25v-36.23c0-7.25,5.75-13.24,12.99-13.24h396.8c15.24,0,27.73-12.5,27.73-27.75v-2.49c0-15.25-12.49-27.75-27.73-27.75h-177.66c-37.73,0-69.47-26.99-76.96-62.72-1.25-5.25-1.75-10.49-1.75-16v-25.99c0-5.5.5-10.75,1.75-16C162.67,26.99,194.4,0,232.13,0h246.62c7.25,0,12.99,5.99,12.99,13.24v36.24c0,7.25-5.75,13.24-12.99,13.24h-234.88c-15.24,0-27.73,12.25-27.73,27.49v2.75c0,15.25,12.49,27.75,27.73,27.75h177.41c43.48,0,78.71,35.49,78.71,78.72Z"/>
    </g>
  </g>
</svg>