<?xml version="1.0" encoding="UTF-8"?>
<svg id="Calque_2" data-name="Calque 2" xmlns="http://www.w3.org/2000/svg" viewBox="0 0 500.65 304.54">
  <defs>
    <style>
      .cls-1 {
        fill: #6873e0;
      }
    </style>
  </defs>
  <g id="Calque_1-2" data-name="Calque 1">
    <g>
      <path class="cls-1" d="M146.86,0c-13.76,14.76-23.76,33.28-28.02,54.06-.75,2.75-1.25,5.74-1.75,8.75H13.01c-7.26,0-13.01-6-13.01-13.26V13.26C0,6,5.75,0,13.01,0h133.85Z"/>
      <path class="cls-1" d="M147.37,183.67H44.79c-7.26,0-13.26-6-13.26-13.26v-36.29c0-7.26,6-13.26,13.26-13.26h72.56c.25,2.75.75,5.25,1.25,7.5,4.51,21.27,14.51,40.29,28.77,55.3Z"/>
      <path class="cls-1" d="M500.65,199.69v26.03c0,43.29-35.28,78.82-78.81,78.82H13.01c-7.26,0-13.01-6.01-13.01-13.27v-36.28c0-7.26,5.75-13.26,13.01-13.26h397.32c15.26,0,27.77-12.51,27.77-27.79v-2.49c0-15.27-12.51-27.79-27.77-27.79h-177.9c-37.78,0-69.56-27.03-77.06-62.8-1.25-5.25-1.75-10.51-1.75-16.02v-26.03c0-5.51.5-10.76,1.75-16.02C162.88,27.03,194.66,0,232.44,0h246.95c7.26,0,13.01,6,13.01,13.26v36.29c0,7.26-5.75,13.26-13.01,13.26h-235.19c-15.26,0-27.77,12.27-27.77,27.53v2.75c0,15.27,12.51,27.79,27.77,27.79h177.65c43.53,0,78.81,35.53,78.81,78.82Z"/>
      <path class="cls-1" d="M500.65,199.69v26.03c0,43.29-35.28,78.82-78.81,78.82H13.01c-7.26,0-13.01-6.01-13.01-13.27v-36.28c0-7.26,5.75-13.26,13.01-13.26h397.32c15.26,0,27.77-12.51,27.77-27.79v-2.49c0-15.27-12.51-27.79-27.77-27.79h-177.9c-37.78,0-69.56-27.03-77.06-62.8-1.25-5.25-1.75-10.51-1.75-16.02v-26.03c0-5.51.5-10.76,1.75-16.02C162.88,27.03,194.66,0,232.44,0h246.95c7.26,0,13.01,6,13.01,13.26v36.29c0,7.26-5.75,13.26-13.01,13.26h-235.19c-15.26,0-27.77,12.27-27.77,27.53v2.75c0,15.27,12.51,27.79,27.77,27.79h177.65c43.53,0,78.81,35.53,78.81,78.82Z"/>
    </g>
  </g>
</svg>